<svg xmlns="http://www.w3.org/2000/svg" width="24" height="24" fill="none"><g clip-path="url(#a)"><path fill="#55ACEE" d="M12 24c6.627 0 12-5.373 12-12S18.627 0 12 0 0 5.373 0 12s5.373 12 12 12Z"/><path fill="#F1F2F2" d="M18.997 8.072a5.73 5.73 0 0 1-1.65.452 2.88 2.88 0 0 0 1.263-1.589 5.75 5.75 0 0 1-1.824.7 2.875 2.875 0 0 0-4.89 2.617 8.153 8.153 0 0 1-5.92-3 2.875 2.875 0 0 0 .89 3.835 2.853 2.853 0 0 1-1.3-.36v.036a2.874 2.874 0 0 0 2.3 2.816 2.883 2.883 0 0 1-1.3.05 2.875 2.875 0 0 0 2.683 1.995 5.8 5.8 0 0 1-4.252 1.188A8.168 8.168 0 0 0 17.572 9.93c0-.124 0-.248-.008-.37a5.822 5.822 0 0 0 1.433-1.488Z"/></g><defs><clipPath id="a"><path fill="#fff" d="M0 0h24v24H0z"/></clipPath></defs></svg>