<svg width="1707" height="1112" viewBox="0 0 1707 1112" fill="none" xmlns="http://www.w3.org/2000/svg">
<g clip-path="url(#clip0_615_236)">
<path d="M886.667 0.800638C876 2.13397 854.933 7.0673 844.133 10.934C774.667 35.334 723.333 100.934 719.2 170.667L718.533 182.001L726.4 167.067C755.467 112.401 797.067 72.134 839.2 58.0006C856.267 52.2673 866.667 50.534 889.333 49.734C914.267 48.934 934.933 51.0673 956.4 56.6673C1024.4 74.2673 1077.47 125.734 1108.53 204.001C1114.67 219.601 1124 250.134 1124 254.801C1124 256.134 1124.53 257.334 1125.2 257.334C1126.8 257.334 1128 248.401 1128.8 228.001C1131.33 171.334 1108.8 109.734 1070.67 68.934C1039.6 35.8673 998.267 14.2673 945.867 4.00064C931.867 1.20064 898.133 -0.532696 886.667 0.800638Z" fill="#08A6E4"/>
<path d="M171.333 39.334C86.8 53.2007 20.5333 124.001 3.19997 219.334C0.799968 232.134 -0.800032 266.801 0.666635 274.134L1.59997 279.334L5.86663 267.334C36.4 182.401 82.6666 124.001 138.4 100.001C174.133 84.534 220.267 82.4007 258 94.2673C308 110.001 344 155.734 363.6 228.534C366.667 239.734 368.933 246.001 369.6 244.934C371.467 241.467 373.467 212.667 372.667 200.001C370.933 175.334 362.667 144.001 352.533 123.867C346.667 112.134 333.333 93.6007 323.733 83.734C302.667 62.2673 277.733 49.2007 243.333 41.334C227.2 37.6007 188.533 36.534 171.333 39.334Z" fill="#08A6E4"/>
<path d="M1265.87 201.334C1238.93 205.334 1211.47 226.801 1197.2 254.934C1189.2 270.934 1187.33 280.801 1187.47 308.001C1187.47 328.134 1188.13 335.201 1190.53 346.668C1202.13 401.868 1229.73 463.334 1270.53 524.668C1278.27 536.401 1284.8 546.268 1285.07 546.668C1285.2 547.068 1282 548.534 1277.87 550.001C1254.53 557.868 1219.47 591.734 1205.2 620.401C1190.93 648.534 1190.93 679.468 1205.2 707.601C1216.13 729.468 1238 753.734 1253.73 761.468L1262 765.601L1262.13 785.734C1262.27 838.668 1281.47 885.734 1317.2 921.334C1343.73 947.734 1375.73 964.668 1414.67 972.934C1430.93 976.401 1477.2 976.401 1493.33 972.934C1527.87 965.601 1556.8 950.801 1579.87 928.668C1593.6 915.601 1603.33 902.934 1606.4 894.401C1608.13 889.468 1609.33 888.001 1611.47 888.001C1623.07 888.001 1637.47 878.401 1658.8 856.401C1700.8 813.201 1715.47 767.068 1701.07 722.668C1695.2 704.401 1685.2 688.268 1670.27 672.401C1658.93 660.534 1652.67 656.934 1643.07 656.801L1636 656.668V638.668C1636 611.068 1631.2 597.734 1616.13 582.534C1600.27 566.668 1575.73 557.468 1540.4 554.268L1522.8 552.668L1532.8 541.334C1604.27 460.801 1644.93 394.268 1656.93 338.401C1660.27 322.934 1660.13 294.534 1656.67 282.668C1653.33 270.668 1645.33 255.334 1638.13 246.268C1626 231.601 1603.07 216.668 1581.2 209.468C1556.27 201.334 1529.73 204.134 1507.07 217.468C1495.73 224.134 1474 246.401 1464.13 261.334C1447.2 287.201 1428.67 328.668 1415.2 371.334C1410.13 387.601 1408.8 390.668 1407.87 388.001C1402.27 369.334 1390.4 334.668 1385.07 321.334C1376.27 299.601 1357.6 262.268 1348.4 248.001C1327.2 215.334 1294.93 197.068 1265.87 201.334Z" fill="#08A6E4"/>
<path d="M1013.33 626.4C966.8 673.6 929.333 701.467 877.333 727.867C814 760 748.4 777.867 666 785.6C639.867 788 443.333 788 416 785.6C327.067 777.734 272.8 760.534 226.667 725.867C197.733 704.134 150.8 650.134 125.6 609.867L119.867 600.667L120.667 636.667C121.867 686.934 125.067 701.734 143.467 740C197.6 852.534 336.267 980.267 479.2 1049.47C576.4 1096.4 672.133 1117.2 761.867 1110.8C823.733 1106.4 877.867 1093.47 920.267 1072.93C952.933 1057.2 972.667 1043.2 996 1019.2C1039.47 974.4 1063.33 915.6 1069.33 838.8C1072.53 796.4 1069.07 743.6 1059.33 688C1055.47 666.134 1040.93 600 1040 600C1039.6 600 1027.6 611.867 1013.33 626.4Z" fill="#08A6E4"/>
</g>
<defs>
<clipPath id="clip0_615_236">
<rect width="1706.67" height="1112" fill="white"/>
</clipPath>
</defs>
</svg>
